PathFileType	4	(X/Y/Z)	E:\Qualisys_Data\Carbon_Farble_Plate\Data\Amateur_Runner\S2\T3\S2T3V21_c3d.trc
DataRate	CameraRate	NumFrames	NumMarkers	Units	OrigDataRate	OrigDataStartFrame	OrigNumFrames
200.000000	200.000000	5	39	mm	200.000000	150	301
Frame#	Time	LSHO			RSHO			LICST			RICST			LASIS			LHEEL			RASIS			LTROC			RTROC			SACR			LTH1			LSK4			LTH2			LTH3			RHM5			LSK2			LTH4			RTH1			LTOE			RTH2			RTH3			RTH4			LLEP			RLEP			LSK1			LSK3			RSK1			LHM5			RSK2			LFT1			RSK3			RSK4			LLME			RLME			RTOE			RHEEL			RFT1			RFT2			LFT2			
		X1	Y1	Z1	X2	Y2	Z2	X3	Y3	Z3	X4	Y4	Z4	X5	Y5	Z5	X6	Y6	Z6	X7	Y7	Z7	X8	Y8	Z8	X9	Y9	Z9	X10	Y10	Z10	X11	Y11	Z11	X12	Y12	Z12	X13	Y13	Z13	X14	Y14	Z14	X15	Y15	Z15	X16	Y16	Z16	X17	Y17	Z17	X18	Y18	Z18	X19	Y19	Z19	X20	Y20	Z20	X21	Y21	Z21	X22	Y22	Z22	X23	Y23	Z23	X24	Y24	Z24	X25	Y25	Z25	X26	Y26	Z26	X27	Y27	Z27	X28	Y28	Z28	X29	Y29	Z29	X30	Y30	Z30	X31	Y31	Z31	X32	Y32	Z32	X33	Y33	Z33	X34	Y34	Z34	X35	Y35	Z35	X36	Y36	Z36	X37	Y37	Z37	X38	Y38	Z38	X39	Y39	Z39	

151	0.75	196.2021179199219	1484.766479492188	-456.0897216796875	121.7260437011719	1466.75390625	-161.2514190673828	107.7768249511719	1026.551147460938	-465.7791137695312	99.07656860351562	1015.519775390625	-168.7024688720703	156.9479217529297	971.5550537109376	-451.6898193359375	-428.0451965332031	502.20703125	-357.0879211425781	155.6452026367188	968.6181030273438	-197.0054016113281	10.3754825592041	923.64892578125	-474.4450073242188	21.99548530578613	909.1409912109376	-160.7655334472656	8.866332054138184	1067.234375	-325.8855590820312	51.89839553833008	663.16455078125	-481.9192199707031	-282.2097473144531	531.8837890625	-451.9942626953125	-26.61377906799316	689.1051025390625	-483.6902770996094	18.69346046447754	565.9509887695312	-470.2972412109375	421.9039001464844	138.208984375	-181.6124420166016	-186.6544647216797	554.55908203125	-472.9158020019531	-60.755859375	596.2826538085938	-461.1622924804688	233.1515655517578	672.94384765625	-152.9895477294922	-506.4476623535156	272.6252746582031	-418.2519226074219	158.3020935058594	644.820556640625	-147.0062561035156	263.1031799316406	581.51025390625	-188.5182037353516	186.5664978027344	556.51904296875	-179.1402130126953	-49.96598052978516	542.9024658203125	-470.9672546386719	229.4905090332031	537.8944091796875	-177.7270660400391	-170.0680999755859	476.6233215332031	-474.4096984863281	-267.4281311035156	455.5856323242188	-460.6488647460938	282.3704223632812	426.4367370605469	-178.4210510253906	-520.1228637695312	348.7457885742188	-453.7557067871094	204.0882263183594	413.6974182128906	-166.5055236816406	-447.9310302734375	491.2835693359375	-323.9486083984375	298.0466613769531	325.6171569824219	-189.3001403808594	219.251220703125	316.828369140625	-180.3442230224609	-440.857666015625	456.284423828125	-421.1927490234375	293.5749816894531	133.4779815673828	-215.0106506347656	477.4686889648438	182.2278594970703	-233.4223327636719	244.7020568847656	93.17347717285156	-275.0971374511719	269.5508728027344	76.02174377441406	-304.2906799316406	251.5599365234375	66.43998718261719	-255.9517364501953	-460.5116271972656	511.8846435546875	-372.0414733886719
152	0.755	215.9758148193359	1481.227172851562	-455.0749206542969	141.2236938476562	1462.228271484375	-159.6676177978516	127.7960968017578	1022.852905273438	-465.6104125976562	116.5882186889648	1011.952331542969	-169.2492523193359	176.6124267578125	968.0382080078124	-450.7936096191406	-402.268310546875	508.2411499023438	-355.6309204101562	174.3371276855469	965.0703125	-196.0655822753906	30.9342212677002	919.5628051757812	-475.1524963378906	40.44232940673828	905.6019897460938	-160.5501251220703	28.2663402557373	1063.48193359375	-325.3856201171875	75.99951171875	658.6862182617188	-482.1488342285156	-255.6647033691406	532.4306640625	-452.0475769042969	-3.260294914245605	683.3978271484375	-483.6504821777344	43.94260787963867	561.0046997070312	-471.2959289550781	435.1561279296875	132.4732666015625	-181.6979827880859	-159.7768402099609	552.4199829101562	-473.4550476074219	-35.75026702880859	589.7398071289062	-461.62158203125	252.8669281005859	670.1564331054688	-153.3474731445312	-486.568359375	280.3349609375	-417.8191528320312	177.3996887207031	642.4805297851562	-149.0252838134766	282.5960693359375	578.6685180664062	-189.5042724609375	206.0569458007812	553.5687866210938	-179.6022796630859	-24.07880020141602	536.8938598632812	-471.8319702148438	248.8266754150391	534.2520141601562	-179.0790405273438	-145.4814605712891	473.9731750488281	-474.3278198242188	-243.7103118896484	456.2855834960938	-460.0026550292969	300.1052551269531	421.7680358886719	-178.7469940185547	-498.3062133789062	357.3153686523438	-452.9697265625	221.5212097167969	409.9225769042969	-166.9600677490234	-422.0674133300781	497.2898254394531	-322.4874572753906	314.1968078613281	320.8520812988281	-189.8988647460938	235.5950469970703	313.0641479492188	-180.8592224121094	-416.7033081054688	462.6123962402344	-419.7283935546875	307.4208068847656	128.8980712890625	-215.8553771972656	491.1106262207031	176.3386383056641	-232.7728576660156	257.6705627441406	89.62078094482422	-276.9747009277344	282.88232421875	72.4272689819336	-306.0862426757812	264.7163696289062	62.65136337280273	-258.6025695800781	-434.5480041503906	518.7960815429688	-370.4621887207031
153	0.76	235.5038452148438	1477.385009765625	-453.7017211914062	160.7140808105469	1457.118774414062	-158.0490570068359	147.7899932861328	1018.992553710938	-465.1588134765625	134.8000793457031	1008.213806152344	-168.4866027832031	196.3449096679688	964.4573974609376	-449.8930053710938	-375.830322265625	513.8514404296875	-354.4816589355469	192.9568786621094	961.5728149414062	-195.1583404541016	51.44271850585938	914.9560546875	-475.5308837890625	58.49851608276367	901.7842407226562	-160.0170135498047	47.55037307739258	1059.568237304688	-325.1871948242188	99.86191558837892	653.9266967773438	-482.3752136230469	-229.4208984375	532.9530029296875	-452.2550048828125	20.24440574645996	677.4111938476562	-483.7547302246094	69.43390655517578	555.6019287109375	-472.1526489257812	447.10107421875	126.0835952758789	-182.3672332763672	-132.5722351074219	549.770263671875	-473.9338989257812	-10.72696208953857	582.9671630859375	-461.6941833496094	272.391845703125	667.4716796875	-154.191162109375	-465.2407836914062	288.1185913085938	-417.1173400878906	196.9526977539062	640.3544311523438	-150.8787994384766	302.0514526367188	576.2694702148438	-189.9321746826172	225.5045013427734	551.6039428710938	-180.3191833496094	2.016837120056152	530.6309204101562	-472.8587951660156	268.2935485839844	531.873779296875	-179.1299285888672	-120.6872177124023	470.9893493652344	-474.6007385253906	-218.9182891845703	455.4542846679688	-459.6669006347656	317.5730895996094	417.0127868652344	-179.508056640625	-475.5484924316406	365.8132629394531	-452.3663635253906	238.6907806396484	406.8299865722656	-167.7416839599609	-396.2037658691406	503.2940368652344	-321.2350158691406	329.9062194824219	315.6497192382812	-191.353759765625	250.797119140625	308.8009643554688	-181.9717864990234	-391.9451599121094	469.0709228515625	-418.7463073730469	319.5956420898438	124.0131072998047	-217.3179016113281	503.9983520507812	169.4680480957031	-232.8587341308594	270.3333129882812	85.34090423583984	-278.5989685058594	295.2232360839844	68.01072692871094	-307.4536743164062	276.7232360839844	58.49483489990234	-260.2541198730469	-407.9944152832031	524.9933471679688	-368.8862609863281
154	0.765	255.0760345458984	1473.066162109375	-452.6630554199219	180.2411651611328	1451.595703125	-156.5787353515625	167.7478332519531	1014.843811035156	-464.78955078125	152.8898620605469	1003.997680664062	-167.8685760498047	216.0858459472656	960.2523193359376	-448.9883422851562	-349.4837341308594	518.941650390625	-352.7452392578125	211.3361358642578	957.701904296875	-193.9404602050781	71.79995727539062	910.1470947265624	-475.9327697753906	77.07613372802734	897.4085083007812	-159.8636932373047	66.6834716796875	1055.185668945312	-325.1505126953125	123.4583282470703	649.0346069335938	-482.7992553710938	-202.1847076416016	533.086181640625	-452.3092346191406	43.99357604980469	671.3921508789062	-483.5569458007812	95.06765747070312	550.3427734375	-473.3662414550781	458.6474914550781	119.8100128173828	-183.36767578125	-105.1404037475586	546.95361328125	-474.509765625	14.73740386962891	576.33447265625	-462.1005859375	291.8140869140625	664.6740112304688	-155.3084869384766	-442.5673828125	295.5130615234375	-417.1875915527344	216.4581298828125	638.0370483398438	-152.2727813720703	321.1678771972656	573.3947143554688	-190.7935943603516	245.0335235595703	548.8606567382812	-180.2685852050781	28.01479530334473	524.1909790039062	-473.5788269042969	286.9554138183594	528.287353515625	-179.8669586181641	-95.59617614746094	467.5675659179688	-474.5181884765625	-193.9227294921875	454.9512023925781	-459.7323913574219	334.6678771972656	411.8302917480469	-180.2896118164062	-451.790771484375	372.8421936035156	-451.4543762207031	255.7635803222656	403.1409912109375	-168.2764282226562	-369.797607421875	508.244384765625	-320.0492248535156	345.2198486328125	310.4852294921875	-191.8422393798828	266.3564147949219	305.2981872558594	-182.7171325683594	-366.4412231445312	474.74609375	-417.2120056152344	331.5733337402344	119.183219909668	-217.9833068847656	516.3021850585938	161.7937927246094	-233.4139099121094	281.7093200683594	80.90486145019531	-279.1524047851562	306.3074340820312	63.50920867919922	-308.2822265625	287.3373413085938	53.99637222290039	-260.9185791015625	-381.2673645019531	530.963134765625	-367.1296691894531
155	0.77	274.4485473632812	1468.786010742188	-451.363525390625	199.91162109375	1445.727905273438	-154.8332366943359	187.5416412353516	1010.333251953125	-464.3572692871094	170.9605102539062	999.7916870117188	-167.3557586669922	236.0829010009766	955.9515380859376	-448.1354064941406	-322.4435424804688	523.882568359375	-351.3898315429688	229.8935852050781	953.796875	-192.5077972412109	92.1708755493164	904.7849731445312	-476.4307861328125	95.07875061035156	892.8369750976562	-159.7994079589844	85.72863006591797	1050.828369140625	-324.8969421386719	147.7648010253906	643.8159790039062	-482.8680419921875	-174.5845489501953	533.1727294921875	-452.3402099609375	67.4118881225586	665.0543212890625	-483.3582153320312	120.4384078979492	544.4826049804688	-474.5328063964844	469.9932250976562	112.8981323242188	-184.3774871826172	-76.93254852294922	543.7567138671875	-474.7443542480469	39.79128646850586	569.3283081054688	-462.4140014648438	310.6186828613281	661.7929077148438	-156.4468688964844	-418.9109191894531	302.0761413574219	-417.0770568847656	235.4601745605469	635.60009765625	-154.1883392333984	340.4125366210938	570.4153442382812	-191.9142303466797	263.946533203125	546.2737426757812	-180.8903045654297	54.06364059448242	517.9375610351562	-475.7110290527344	306.0648498535156	525.5588989257812	-180.2262878417969	-70.29252624511719	464.2698669433594	-474.5971069335938	-168.8994750976562	455.7121887207031	-459.3977355957031	351.564208984375	406.5773315429688	-180.453369140625	-427.0302124023438	380.2215576171875	-451.1981201171875	272.4785766601562	399.1417541503906	-168.9932250976562	-343.0541687011719	513.496337890625	-318.3061828613281	360.25634765625	304.7956237792969	-192.9541931152344	281.3324890136719	301.2379760742188	-183.3081512451172	-339.8656311035156	480.5370178222656	-416.3250122070312	342.9724731445312	114.38037109375	-218.5725250244141	528.1911010742188	153.7860412597656	-234.8832244873047	292.0695190429688	76.5457534790039	-279.5784912109375	316.3569641113281	58.73126983642578	-308.8037414550781	297.647705078125	49.66708755493164	-261.3652954101562	-354.1139526367188	536.2265014648438	-365.2971496582031
